Coordinates
version=1
nRows=10
nColumns=63
inDegrees=yes

Units are S.I. units (second, meters, Newtons, ...)
If the header above contains a line with 'inDegrees', this indicates whether rotational values are in degrees (yes) or radians (no).

endheader
time	pelvis_tilt	pelvis_list	pelvis_rotation	pelvis_tx	pelvis_ty	pelvis_tz	hip_flexion_r	hip_adduction_r	hip_rotation_r	knee_angle_r	knee_angle_r_beta	ankle_angle_r	subtalar_angle_r	mtp_angle_r	hip_flexion_l	hip_adduction_l	hip_rotation_l	knee_angle_l	knee_angle_l_beta	ankle_angle_l	subtalar_angle_l	mtp_angle_l	L5_S1_Flex_Ext	L5_S1_Lat_Bending	L5_S1_axial_rotation	L4_L5_Flex_Ext	L4_L5_Lat_Bending	L4_L5_axial_rotation	L3_L4_Flex_Ext	L3_L4_Lat_Bending	L3_L4_axial_rotation	L2_L3_Flex_Ext	L2_L3_Lat_Bending	L2_L3_axial_rotation	L1_L2_Flex_Ext	L1_L2_Lat_Bending	L1_L2_axial_rotation	L1_T12_Flex_Ext	L1_T12_Lat_Bending	L1_T12_axial_rotation	Abs_r3	Abs_r2	Abs_r1	Abs_t1	Abs_t2	neck_flexion	neck_bending	neck_rotation	arm_flex_r	arm_add_r	arm_rot_r	elbow_flex_r	pro_sup_r	wrist_flex_r	wrist_dev_r	arm_flex_l	arm_add_l	arm_rot_l	elbow_flex_l	pro_sup_l	wrist_flex_l	wrist_dev_l
      3.25000000	     -0.17732168	     -3.30626174	     95.37206210	      0.17743146	      0.50266155	      0.96522260	      1.69833596	      1.08663874	    -11.62483255	     13.65848168	      0.23838548	     44.89499099	     12.93687853	      0.00000000	     -1.10715140	      1.54588170	     -7.78109328	      9.10637664	      0.15893626	     42.35844288	      9.76333143	      0.00000000	      0.14394309	      0.28573657	     -0.53856088	      0.26731672	      0.38002964	     -0.57222093	      0.23648411	      0.69473991	     -0.57222093	      0.16451256	      0.69473991	     -0.47124077	      0.13366556	      0.58267402	     -0.43758071	      0.08224908	      0.44260595	     -0.40392066	      1.02817111	      3.23230927	     -2.99531403	      0.00000000	      0.00000000	     20.20053504	     -1.57727873	     -6.06955026	    -14.42068447	    -26.75518111	     75.07852330	     57.85907444	     19.23613440	     32.36981226	    -24.67910381	    -28.08670852	     -8.17653397	     -0.11894703	     65.59284305	     86.00671547	     64.34206847	     31.30176576
      3.26923077	     -0.23364869	     -3.36562760	     95.32353031	      0.17727927	      0.50296134	      0.96494846	      1.73004024	      1.06674300	    -11.12484374	     13.59258861	      0.23723543	     44.85711883	     12.39969716	      0.00000000	     -1.11587578	      1.76612320	     -6.54357672	      8.83706719	      0.15423592	     42.23464763	      8.01642526	      0.00000000	      0.15546608	      0.27571967	     -0.55107883	      0.28871606	      0.36670716	     -0.58552126	      0.25541522	      0.67038480	     -0.58552126	      0.17768218	      0.67038480	     -0.48219398	      0.14436580	      0.56224755	     -0.44775155	      0.08883332	      0.42708977	     -0.41330913	      1.11047867	      3.11899604	     -3.06493516	      0.00000000	      0.00000000	     20.06561561	     -1.44223880	     -6.33583762	    -14.36686637	    -26.89851495	     75.01280338	     58.31767129	     19.44464835	     30.66951249	    -24.66946565	    -28.27299050	     -7.92451208	     -0.65430017	     65.44786041	     85.35242699	     64.09120429	     31.59384111
      3.28846154	     -0.23416160	     -3.34047118	     95.38665123	      0.17716853	      0.50321487	      0.96480339	      1.68093843	      1.06152619	    -11.19602243	     13.58244980	      0.23705847	     44.86689207	     12.44708499	      0.00000000	     -1.13641665	      1.76096928	     -6.64240377	      8.79388695	      0.15348228	     42.31775737	      8.11112524	      0.00000000	      0.14908302	      0.26951664	     -0.62704684	      0.27686207	      0.35845713	     -0.66623727	      0.24492849	      0.65530276	     -0.66623727	      0.17038698	      0.65530276	     -0.54866598	      0.13843849	      0.54959834	     -0.50947556	      0.08518604	      0.41748128	     -0.47028513	      1.06488508	      3.04882616	     -3.48744641	      0.00000000	      0.00000000	     20.02529310	     -1.19652507	     -6.35066504	    -13.75179733	    -27.35917165	     75.88916937	     59.23298856	     19.23372544	     28.07682513	    -24.66426065	    -28.46889177	     -7.89716771	     -0.81788050	     65.60709691	     85.71068710	     63.81746018	     31.38009946
      3.30769231	     -0.19898930	     -3.38719588	     95.20845596	      0.17750044	      0.50318153	      0.96497658	      1.76797641	      1.07014438	    -11.25241715	     13.61025479	      0.23754376	     44.89668381	     12.76857522	      0.00000000	     -0.98779962	      1.55033288	     -8.98682738	      9.03793753	      0.15774177	     42.75886651	     10.58283495	      0.00000000	      0.14759246	      0.26838200	     -0.70543187	      0.27409396	      0.35694805	     -0.74952136	      0.24247965	      0.65254398	     -0.74952136	      0.16868342	      0.65254398	     -0.61725289	      0.13705436	      0.54728456	     -0.57316340	      0.08433433	      0.41572371	     -0.52907390	      1.05423819	      3.03599081	     -3.92340044	      0.00000000	      0.00000000	     20.10328438	     -0.94932237	     -6.00243663	    -12.36724717	    -27.89480731	     78.19592299	     59.83749290	     18.15084458	     27.27417653	    -24.65986862	    -28.83063597	     -7.82072921	     -1.05470940	     65.97499441	     86.19958696	     63.12075069	     31.03957448
      3.32692308	     -0.15557786	     -3.46494991	     95.14258990	      0.17745547	      0.50293254	      0.96495121	      1.85857181	      1.07197281	    -11.39329951	     13.61449632	      0.23761779	     44.89672798	     13.05393786	      0.00000000	     -0.91546662	      1.48878947	     -9.35915426	      9.10244955	      0.15886771	     42.78042529	     10.86801860	      0.00000000	      0.15181499	      0.26589769	     -0.78554886	      0.28193562	      0.35364393	     -0.83464567	      0.24941685	      0.64650365	     -0.83464567	      0.17350935	      0.64650365	     -0.68735526	      0.14097540	      0.54221858	     -0.63825845	      0.08674709	      0.41187553	     -0.58916165	      1.08439930	      3.00788788	     -4.36898711	      0.00000000	      0.00000000	     20.19861371	     -0.64657048	     -6.00759037	    -11.41102000	    -28.32646773	     79.53979313	     60.14554713	     18.25696526	     27.31112052	    -24.64339967	    -29.30179054	     -7.47138669	     -1.69908943	     66.36977930	     86.33707525	     62.56165856	     31.17418560
      3.34615385	     -0.09105879	     -3.55948126	     95.12945703	      0.17732644	      0.50261231	      0.96487734	      1.97400504	      1.09627331	    -11.56082713	     13.63533585	      0.23798151	     44.90537653	     13.33358784	      0.00000000	     -0.88015399	      1.51436586	     -8.40350682	      9.02808308	      0.15756977	     42.50453741	      9.60186419	      0.00000000	      0.15470596	      0.26087632	     -0.88886197	      0.28730444	      0.34696551	     -0.94441584	      0.25416642	      0.63429469	     -0.94441584	      0.17681344	      0.63429469	     -0.77775422	      0.14365995	      0.53197899	     -0.72220035	      0.08839899	      0.40409742	     -0.66664648	      1.10504920	      2.95108512	     -4.94358362	      0.00000000	      0.00000000	     20.45373635	     -0.31839408	     -6.33043792	    -10.07902805	    -28.86729553	     81.36928067	     60.81972945	     18.34901157	     26.27983829	    -24.61765366	    -30.02685660	     -6.67562027	     -3.15312033	     66.73357709	     86.24221886	     62.06112643	     31.11838109
      3.36538462	     -0.02527339	     -3.68351004	     95.04972462	      0.17713624	      0.50227994	      0.96465391	      2.10735358	      1.09018181	    -11.83248177	     13.63659678	      0.23800351	     44.92650904	     13.84066473	      0.00000000	     -0.84904080	      1.50132765	     -8.06041003	      8.90398718	      0.15540389	     42.35068445	      9.06217770	      0.00000000	      0.16508326	      0.25790406	     -0.95831254	      0.30657613	      0.34301240	     -1.01820707	      0.27121529	      0.62706793	     -1.01820707	      0.18867366	      0.62706793	     -0.83852347	      0.15329632	      0.52591795	     -0.77862894	      0.09432858	      0.39949339	     -0.71873440	      1.17917323	      2.91746228	     -5.32984684	      0.00000000	      0.00000000	     20.75772098	     -0.00329619	     -6.75051036	     -8.62519535	    -29.65148241	     83.57276506	     62.53874175	     17.01902758	     22.41240603	    -24.58894268	    -30.80633611	     -5.74932583	     -4.70109704	     67.05721237	     86.10252848	     61.14525189	     30.78373078
      3.38461538	      0.05123249	     -3.77899879	     94.98154939	      0.17708162	      0.50196430	      0.96439127	      2.20717789	      1.17262786	    -11.60022502	     13.61248669	      0.23758271	     44.85964469	     13.71326970	      0.00000000	     -0.81005436	      1.38485806	     -8.56902587	      8.86285666	      0.15468603	     42.45110366	      9.62652128	      0.00000000	      0.17335167	      0.25447971	     -0.98592649	      0.32193140	      0.33845801	     -1.04754690	      0.28479947	      0.61874197	     -1.04754690	      0.19812363	      0.61874197	     -0.86268568	      0.16097437	      0.51893502	     -0.80106527	      0.09905315	      0.39418907	     -0.73944487	      1.23823368	      2.87872538	     -5.48342736	      0.00000000	      0.00000000	     21.07724663	      0.25627639	     -7.46506416	     -7.45568586	    -30.21543847	     85.31004121	     64.05699386	     15.63217478	     18.88706227	    -24.55470819	    -31.58913302	     -4.83039488	     -6.21882070	     67.54801824	     85.81850723	     59.88151539	     30.68424994
      3.40384615	      0.10171998	     -3.83159557	     95.09564815	      0.17671151	      0.50173038	      0.96408438	      2.22771094	      1.16827519	    -12.01851609	     13.57628198	      0.23695082	     44.89041141	     14.16235955	      0.00000000	     -0.84968881	      1.41712865	     -7.43199903	      8.73271429	      0.15241462	     42.26781331	      8.34233765	      0.00000000	      0.18270980	      0.25007154	     -0.98693247	      0.33931037	      0.33259515	     -1.04861575	      0.30017393	      0.60802395	     -1.04861575	      0.20881903	      0.60802395	     -0.86356591	      0.16966432	      0.50994589	     -0.80188263	      0.10440038	      0.38736082	     -0.74019935	      1.30507784	      2.82885930	     -5.48902234	      0.00000000	      0.00000000	     21.16998561	      0.12647793	     -8.52511255	     -6.76779529	    -30.56236237	     86.42409198	     65.31209209	     14.13476225	     15.74367212	    -24.52643525	    -32.22103313	     -4.27231293	     -7.09677212	     68.26530744	     85.88117778	     58.32034800	     30.72846610
      3.42307692	      0.16576638	     -3.88363695	     95.09349504	      0.17670758	      0.50146470	      0.96383627	      2.28627565	      1.20784273	    -12.18504545	     13.56992314	      0.23683984	     44.92573609	     14.46281391	      0.00000000	     -0.78347962	      1.23191348	     -8.68335968	      8.90784310	      0.15547119	     42.57553020	      9.72822393	      0.00000000	      0.19196244	      0.24643643	     -0.91025589	      0.35649345	      0.32776045	     -0.96714688	      0.31537509	      0.59918554	     -0.96714688	      0.21939387	      0.59918554	     -0.79647390	      0.17825632	      0.50253317	     -0.73958291	      0.10968734	      0.38173003	     -0.68269192	      1.37116852	      2.78773820	     -5.06257019	      0.00000000	      0.00000000	     21.05577450	     -0.25239056	     -9.73912374	     -6.87109266	    -30.74910576	     86.39403675	     66.59425742	     12.46985118	     11.82987454	    -24.51542087	    -32.61306146	     -4.12336291	     -7.32651913	     69.15875044	     86.19809497	     56.81977293	     31.27566356
